<svg viewBox="0 0 810 1080" xmlns="http://www.w3.org/2000/svg">
  <polyline points="405,540 764,700 396,704 793,587 730,1015 639,854 754,809 602,1047 780,615 583,1046 713,845 780,993 408,1070 403,1078 555,1020 722,931 643,847 769,796 688,659 765,823 585,1075 569,1040 653,1076 769,392 787,807 729,1045 773,242 776,1039 753,921 679,889 770,584 729,977 753,423 743,436 724,189 710,102 751,810 727,704 721,207 801,1032 759,1079 708,1073 678,931 139,962 125,950 128,859 3,802 186,859 10,178 81,551 183,940 1,743 114,238 86,314 81,509 184,537 146,470 162,529 163,320 183,1017 46,852 22,960 120,476 178,829 236,1009 7,685 157,233 103,213 8,640 186,739 136,377 62,1003 20,411 184,198 45,348 109,179 198,234 79,252 19,904 7,628 60,280 90,170 68,266 158,217 27,291 129,150 96,252 68,494 12,953 168,12 95,1010 176,993 158,408 36,692 136,451 68,207 117,1067 7,458 56,188 62,65 142,76 16,43 67,888 18,855 2,663 160,610 149,774 123,133 74,301 81,613 83,621 211,1045 211,1073 27,76 47,836 141,286 46,1015 8,143 198,868 24,419 25,279 69,214 92,950 80,138 153,151 149,355 23,764 48,865 203,759 131,968 160,526 16,885 151,744 256,909 252,993 599,1019 168,1050 570,1008 709,672 699,178 713,972 472,1054 123,1038 274,958 260,838 344,1056 211,771 186,662 171,689 87,776 150,203 9,15 212,310 51,13 267,987 248,851 170,787 272,896 551,987 687,625 562,1008 396,958 774,1042 322,1059 338,999 406,1072 587,821 517,977 554,934 605,877 550,1047 579,894 506,1036 365,1057 408,1065 459,1038 224,813 200,888 596,978 382,1063 191,787 170,228 185,710 309,1064 541,1070 556,1025 543,1004 578,855 709,751 483,926 13,1046 3,839 14,515 58,64 53,221 90,131 246,36 132,46 44,211 205,676 265,1059 189,640 273,958 640,1043 697,1062 194,860 218,757 90,577 172,74 176,234 8,168 8,975 406,1049 457,947 706,931 88,1031 691,811 493,620 721,1072 774,1074 789,869 789,396 786,339 792,7 578,53 687,833 699,20 683,125 750,239 724,173 731,7 669,942 721,313 670,185 666,78 725,360 625,55 678,155 689,191 759,267 657,133 806,602 744,120 785,139 745,163 739,56 456,100 737,110 639,311 805,92 803,66 530,33 794,29 602,103 738,222 711,68 799,56 789,224 683,1 770,282 667,219 691,638 613,856 507,628 686,781 660,186 510,10 589,68 677,105 797,637 684,166 653,139 699,86 708,50 796,151 651,698 772,306 804,296 791,364 796,292 803,503 802,307 797,884 785,78 728,222 768,501 727,41 501,120 774,12 657,776 651,658 651,1033 669,1063 449,1071 655,711 741,814 628,895 598,866 502,964 534,864 740,556 715,85 773,140 567,145 449,15 783,294 584,885 648,924 556,916 687,770 600,853 530,955 785,956 653,1016 632,790 610,895 577,925 688,852 750,475 750,917 696,475 506,421 533,993 382,997 552,868 675,768 793,936 738,1039 783,1067 478,975 683,751 783,726 687,912 728,674 803,828 660,900 775,1046 713,978 786,759 775,481 786,199 757,22 687,10 629,62 632,4 786,52 779,1041 786,27 809,51 548,57 625,275 648,4 473,30 786,145 741,209 808,427 593,995 742,1030 556,707 469,1006 487,982 387,1016 16,934 141,917 109,1019 122,648 28,1075 436,1070 131,811 41,981 26,838 13,611 74,1068 261,944 34,735 72,657 53,669 258,1049 141,918 106,943 165,795 46,1039 98,973 35,1076 142,911 198,23 147,89 47,257 54,276 142,32 85,148 121,12 103,405 99,507 108,183 186,364 217,469 185,121 91,19 63,68 95,169 106,433 17,973 142,776 93,1041 265,1017 98,412 121,976 52,1079 60,824 7,1054 114,1043 176,83 135,110 204,251 117,132 136,1045 687,1070 762,974 667,1049 619,1072 278,1049 670,761 674,681 298,1064 9,1067 83,937 62,515 85,1057 567,1035 143,1013 183,668 204,599 1,510 20,44 76,191 44,325 75,491 195,1050 47,1068 334,998 85,911 169,107 189,677 134,1025 183,99 59,113 119,50 92,3 217,2 124,194 187,70 125,17 21,221 125,12 10,233 248,180 0,99 66,19 45,721 54,42 276,122 586,66 502,141 588,201 525,188 679,48 628,63 528,104 583,196 704,4 37,31 18,631 3,242 35,3 204,374 182,383 2,87 76,680 41,89 217,87 117,137 119,346 163,397 134,403 180,64 71,47 198,662 808,731 805,1023 791,273 752,847 771,57 599,137 535,42 675,4 526,8 679,19 688,41 453,180 730,265 614,447 484,1040 677,941 471,644 539,420 462,1072 790,904 555,1007 641,974 602,911 746,1033 494,1019 493,604 468,687 504,528 463,439 536,587 780,1067 490,998 222,941 143,586 214,859 791,1067 593,952 587,1018 634,945 604,1022 663,1069 555,1077 625,927 417,929 630,645 397,1047 768,1059 773,859 720,974 671,998 750,514 339,1036 159,871 416,955 170,838 285,797 266,967 736,944 454,915 438,878 16,984 4,1003 85,953 112,962 317,920 162,733 154,847 289,863 357,936 576,981 680,978 767,115 736,112 689,120 695,697 349,691 542,654 384,705 492,715 542,364 562,973 490,684 440,628 512,783 543,657 463,700 511,590 730,1065 367,1054 777,556 764,734 806,17 587,184 632,1074 802,998 591,1007 681,776 478,1052 670,552 437,1008 548,739 446,630 798,965 349,962 720,1009 494,1054 522,479 596,1056 809,897 541,910 676,773 707,304 717,672 719,270 620,832 802,766 658,87 501,25 586,130 731,55 784,36 772,206 606,107 534,164 454,34 497,141 603,182 675,538 607,315 474,812 508,536 660,362 472,52 596,183 793,146 480,18 782,186 632,90 809,712 785,315 493,490 622,426 614,541 668,31 783,909 755,166 729,315 617,450 752,388 656,686 531,646 497,577 502,452 638,385 807,559 434,6 799,570 498,428 472,578 776,224 655,39 513,36 543,44 558,201 750,596 763,575 797,986 749,987 738,832 692,945 717,782 781,311 517,565 686,317 756,705 789,1040 793,569 572,382 477,530 731,394 619,94 595,34 498,129 516,90 669,43 621,54 612,13 505,130 682,124 708,141 708,12 743,310 688,388 690,529 603,77 784,215 437,102 619,131 783,299 763,175 801,309 785,988 780,879 677,685 667,991 225,1026 202,907 190,929 188,891 226,877 120,448 165,1012 53,790 231,414 230,292 25,30 150,53 119,103 103,79 200,791 369,927 105,1066 15,849 16,229 133,105 213,198 171,67 118,949 175,1053 214,908 301,1053 80,789 66,869 90,980 274,1008 803,1037 794,517 803,1022 806,547 418,918 715,859 737,630 438,643 518,643 649,992 754,984 616,1019 110,1076 15,973 148,1063 426,1024 115,1031 91,316 91,346 239,359 160,603 82,328 205,476 123,608 307,923 796,1074 418,1015 458,1003 150,769 195,324 146,860 32,921 202,226 67,392 89,964 67,559 43,1079 398,1064 692,669 805,973 591,967 169,1024 171,929 282,991 53,1021 39,11 299,51 90,616 0,960 45,323 379,100 221,205 16,945 7,813 31,928 255,1067 195,813 186,358 201,375 143,585 332,908 696,890 720,763 720,801 437,1030 110,654 404,1072 82,1063 373,1008 140,880 303,795 159,1019 362,661 179,940 199,850 174,960 286,972 327,964 180,884 395,1022 58,880 60,450 185,206 532,77 712,146 171,12 221,295 39,395 57,703 53,452 236,38 83,389 6,1072 187,1078 178,1044 3,441 102,96 111,197 115,576 136,19 192,9 96,155 68,143 82,180 29,1044 11,985 147,785 551,1072 154,1067 417,1016 538,623 645,667 638,846 381,928 756,859 542,869 463,762 760,723 470,812 638,881 520,621 626,705 553,678 806,972 684,883 708,609 288,699 707,733 551,825 668,601 405,666 611,622 768,1031 606,655 516,642 458,612 493,860 773,679 533,639 655,804 664,744 428,1028 51,787 63,90 181,835 230,894 68,898 255,913 93,772 92,1026 60,71 24,488 132,373 240,81 732,8 623,16 778,76 677,76 559,140 453,137 795,301 509,457 461,531 498,517 486,678 387,621 494,726 523,503 779,182 5,72 25,377 13,478 22,103 19,461 84,33 32,167 309,175 46,195 18,68 23,354 192,249 475,9 670,77 587,61 465,216 610,126 477,169 499,179 688,135 770,415 779,28 519,89 570,34 749,113 765,614 623,143 634,164 444,167 731,115 745,390 784,507 514,443 625,473 368,455 645,470 634,182 532,135 638,76 794,0 147,9 34,199 93,101 82,102 84,250 561,14 117,62 106,16 10,145 276,111 267,243 763,33 739,393 785,109 97,11 37,57 28,1063 143,1050 80,909 478,926 800,921 519,930 501,760 740,516 779,62 773,134 712,137 551,21 254,178 283,197 336,2 630,34 114,12 10,18 0,314 199,7 258,74 140,10 216,14 686,26 629,26 502,180 619,262 549,281 727,71 800,151 84,80 184,37 184,1038 526,976 651,887 723,678 767,1043 568,961 688,142 724,153 804,138 807,201 773,594 757,190 509,47 624,273 668,161 578,541 716,340 403,479 497,455 671,387 606,23 552,142 84,79 96,276 117,699 79,758 214,433 125,308 144,240 120,143 184,74 147,43 186,121 246,490 197,327 158,291 97,985 56,1059 143,925 75,1018 64,899 107,674 304,796 198,983 150,954 215,987 87,960 198,108 96,720 86,349 244,257 125,1045 160,155 186,780 169,338 168,108 170,933 13,969 12,882 23,775 72,13 211,435 225,357 197,499 18,1018 264,1075 95,233 149,508 126,1028 162,340 171,340 127,2 325,31 668,23 595,4 777,84 573,452 657,234 422,810 450,660 567,807 548,411 674,507 492,468 473,783 749,983 714,790 775,846 808,928 405,988 588,674 507,561 485,751 661,535 505,734 551,821 436,817 779,963 523,655 363,992 452,977 68,967 1,459 89,1075 618,1014 676,1077 89,1073 688,1005 806,659 476,1011 383,1039 374,1017 218,716 251,861 226,702 341,1070 473,1079 280,1056 184,1018 653,1050 723,918 773,812 773,988 692,593 711,535 639,837 764,1041 770,728 745,552 318,450 705,400 541,779 730,400 779,1037 743,644 620,948 621,969 101,991 295,1000 803,619 803,315 682,972 679,1062 796,1048 768,747 673,1065 727,931 588,729 682,1012 802,919 741,592 549,783 330,1077 483,871 765,912 682,787 784,881 762,808 784,489 799,170 786,878 733,945 594,1032 725,890 687,416 334,448 406,417 329,486 682,470 535,752 535,465 538,516 452,649 454,748 423,995 488,482 617,492 634,517 377,447 367,427 406,486 757,487 625,703 519,944 539,1012 533,743 557,920 628,952 631,452 601,272 779,60 574,112 687,90 747,815 478,560 689,18 675,519 559,768 116,865 159,193 58,23 37,43 17,193 39,42 43,640 7,730 485,960 648,1020 405,627 541,841 494,1056 660,1035 667,740 681,708 716,197 599,174 613,269 506,81 569,181 739,691 549,82 629,132 185,86 157,47 94,6 685,162 667,674 711,692 499,602 582,619 671,833 610,696 630,719 284,698 151,901 204,936 199,788 236,751 305,1075 795,1043 442,916 266,1041 733,582 299,411 627,485 320,443 571,485 153,420 130,65 186,8 63,488 85,971 13,964 42,592 104,652 326,1017 459,1022 13,544 56,328 18,938 39,174 227,85 781,125 41,72 127,256 154,9 213,307 210,433 644,490 629,254 445,136 518,196 679,388 509,185 674,24 802,16 746,235 805,148 783,665 610,765 721,1022 562,1063 777,1054 675,841 367,776 637,867 556,986 627,969 100,1026 2,1014 2,706 52,377 140,38 245,54 418,175 806,405 498,61 754,71 763,183 614,229 400,95 583,250 595,346 482,1 625,226 724,19 501,3 563,241 453,139 709,156 696,181 726,311 745,486 741,137 669,7 25,268 556,12 723,94 645,440 804,16 804,929 785,1021 621,1074 686,1078 22,929 1,679 92,167 458,45 621,8 476,17 728,15 179,145 55,59 90,7 575,154 770,391 750,358 534,48 728,113 790,827 8,922 478,629 385,710 410,640 446,726 510,675 460,411 779,1051 45,1061 72,992 59,518 70,325 69,998 123,175 1,587 13,221 40,132 528,24 367,51 696,38 661,1061 759,1047 726,778 762,916 104,884 91,778 237,847 662,951 204,961 288,993 329,678 262,946 477,867 352,896 54,971 515,949 343,961 462,751 426,809 429,711 742,1023 691,912 759,838 746,1052 401,664 620,499 485,638 113,859 580,908 232,993 70,1047 41,946 31,1031 368,1037 109,1065 734,1052 585,865 46,951 479,1049 442,1009 263,823 292,894 393,916 6,1012 3,537 5,208 21,729 45,417 161,958 218,1020 48,1054 110,1035 39,969 65,1003 90,1000 57,1068 336,869 241,756 205,660 440,960 540,905 569,1020 539,913 119,856 96,888 205,1010 288,890 321,803 323,798 101,951 170,437 320,1064 477,1042 420,750 493,990 203,1044 192,223 179,246 177,8 375,169 204,34 176,403 176,687 494,724 86,667 76,589 164,1071 771,1062 413,1077 266,1075 201,829 232,905 373,913 398,866 719,936 731,15 714,41 424,63 6,3 70,208 30,5 400,39 226,258 139,1014 251,429 645,417 744,1050 558,913 682,521 524,818 430,790 663,604 635,448 462,74 441,89 596,309 484,42 244,177 387,109 318,155 134,304 277,836 156,717 209,775 206,690 244,679 144,958 149,889 79,400 74,231 358,127 708,108 745,742 672,90 784,284 769,4 737,887 652,887 683,97 554,119 488,29 403,41 499,188 519,293 665,121 506,706 548,761 783,352 776,406 749,5 774,120 3,68 251,28 192,672 316,1028 66,1035 104,150 7,537 414,12 221,258 197,317 159,215 149,41 372,24 417,48 68,347 54,260 112,496 383,945 610,811 682,571 645,576 653,778 647,401 181,461 368,408 694,423 726,808 784,71 751,135 665,1023 731,1014 595,1037 785,1020 714,945 318,948 109,1049 201,1020 178,409 186,275 210,974 97,1070 269,127 197,581 181,769 138,789 85,676 107,952 79,16 2,57 13,365 7,231 51,893 47,1036 84,640 173,27 17,18 98,31 96,106 56,1031 62,921 8,749 22,793 40,801 86,0 307,10 774,9 697,12 803,154 785,42 807,871 586,69 689,41 680,403 425,36 367,8 97,38 72,660 116,372 635,447 521,406 467,548 599,407 351,431 370,375 350,400 263,447 701,536 212,432 191,301 216,517 110,386 106,456 246,350 63,190 114,47 153,8 788,25 784,52 539,573 518,587 666,605 678,291 600,242 573,68 758,611 472,442 619,401 546,446 655,380 624,788 170,781 636,778 535,946 525,392 298,394 691,544 800,213 519,180 533,951 684,807 807,33 771,332 488,222 552,224 465,6 349,16 57,45 226,381 200,390 195,52 246,1079 298,918 423,940 530,802 701,463 469,436 513,420 496,1019 645,941 649,722 476,489 513,670 528,914 423,934 497,911 344,948 332,697 317,683 433,669 687,165 476,572 470,650 624,782 623,116 487,211 794,70 742,944 807,8 644,135 656,380 638,325 719,977 639,1010 507,950 631,995 382,674 499,727 524,694 422,724 696,90 718,94 438,723 633,286 454,940 474,942 636,1006 783,836 720,154 755,88 36,2 18,309 9,895 36,1065 16,914 24,1059 49,1032 265,1039 562,727 621,733 434,918 773,1000 635,824 661,736 588,758 747,901 769,687 491,1013 566,1012 488,1018 518,700 219,696 513,680 553,689 237,695 261,803 325,760 12,976 3,994 25,292 30,510 414,458 598,655 522,580 518,908 602,794 577,863 635,1005 664,873 545,1040 240,1075 184,194 138,403 110,243 155,155 85,979 169,1041 139,929 181,211 149,623 150,591 105,750 255,981 135,943 161,966 224,804 315,852 340,647 787,711 313,371 795,664 677,881 692,718 701,14 673,92 622,46 612,624 614,423 525,134 128,147 157,203 310,192 201,92 122,213 725,11 640,32 522,56 36,55 219,77 199,203 281,173 113,88 56,17 307,178 112,18 11,1003 27,461 61,656 275,794 40,858 283,792 120,1045 125,709 24,1077 126,394 142,1022 164,996 226,388 189,731 184,920 132,1025 9,1052 50,854 105,1059 543,1038 106,1042 803,1036 797,851 409,876 19,759 248,902 19,883 47,398 180,763 95,223 198,742 166,86 125,272 179,87 249,48 557,141 459,211 687,215 254,66 117,71 274,925 19,1072 744,1029 608,783 561,655 677,146 273,103 158,32 54,5 688,25 480,90 737,352 280,1045 299,714 427,689 755,656 759,502 678,623 606,685 697,642 704,545 701,757 652,1050 338,988 270,972 135,334 690,509 544,408 703,809 416,1065 506,952 521,572 557,527 634,480 632,557 640,697 734,843 687,977 716,906 712,738 538,923 773,856 682,600 731,853 696,398 565,528 650,501 564,1062 616,700 650,652 743,862 770,24 798,146 720,6 712,388 561,587 372,695 245,802 330,703 562,676 560,647 537,696 541,408 547,750 655,469 678,518 270,1042 320,738 271,773 6,1021 15,767 717,827 677,578 233,742 726,569 606,693 393,812 518,776 441,824 615,911 624,934 419,780 425,813 576,1046 755,1009 525,1033 193,940 731,1052 805,920 807,574 796,138 757,21 798,103 790,68 706,540 720,389 140,915 252,933 744,930 154,847 648,521 728,161 565,370 525,923 803,641 768,750 738,1062 144,1025 394,1022 236,1011 175,995 725,1027 532,1075 669,1060 452,1054 233,997 5,120 56,257 12,296 48,752 87,1041 110,999 100,953 70,420 144,765 8,180 714,2 750,26 514,30 247,88 244,108 770,191 784,561 772,348 719,233 87,10 98,201 123,649 93,355 20,181 49,185 87,871 167,248 44,277 87,9 256,105 501,160 490,103 534,224 540,236 537,181 229,103 673,70 576,906 762,763 804,360 408,82 28,165 24,480 164,57 78,297 106,843 119,367 131,367 782,455 802,525 789,1047 792,833 691,953 650,994 259,979 180,83 25,84 5,162 54,157 627,32 685,289 422,102 131,152 145,72 742,104 388,17 61,0 17,191 13,359 43,105 35,126 387,121 107,273 103,327 15,1045 3,389 385,14 542,83 103,25 12,26 151,49 18,181 105,39 99,184 175,409 157,771 147,883 188,419 311,440 786,378 328,721 517,717 510,907 518,712 591,853 529,911 377,590 399,616 602,826 763,261 793,60 563,103 789,1055 706,537 804,1060 753,838 781,122 793,954 675,1078 457,957 157,756 191,957 218,888 113,978 121,1024 128,693 140,531 437,376 629,583 320,675 691,785 637,854 628,824 486,816 692,997 787,920 753,38 807,1052 369,969 180,926 238,595 18,15 48,256 373,435 591,464 558,15 59,3 798,74 661,21 558,481 631,196 673,215 537,95 603,166 617,221 687,583 800,30 768,73 248,64 299,37 739,31 730,44 788,6 790,95 642,153 753,542 694,38 604,102 605,72 679,456 684,291 792,40 708,64 691,66 651,124 626,393 281,449 790,429 747,283 691,130 691,86 454,89 684,155 625,527 660,204 673,147 610,669 264,335 405,500 774,259 10,21 15,918 20,714 0,411 0,621 8,506 63,558 15,964 9,49 28,19 229,99 42,805 80,697 59,721 274,191 152,178 142,179 372,146 526,227 646,284 750,469 731,74 774,528 625,912 619,776 566,1058 454,1078 278,914 284,970 302,751 303,932 413,898 493,561 398,739 464,600 406,682 408,920 325,1014 584,682 149,962 610,1018 610,308 492,22 60,282 93,308 174,40 294,51 4,386 13,358 40,964 94,923 199,920 85,845 6,9 33,286 421,1055 159,994 172,854 374,881 111,560 161,174 105,343 144,775 67,454 409,1021 366,1070 479,759 504,533 454,955 537,1037 234,731 242,889 365,922 187,766 204,987 638,1012 201,756 19,45 55,114 27,97 90,326 118,776 72,475 501,1073 762,945 764,1076 625,978 329,1038 36,1049 60,744 564,679 582,992 707,600 794,1078 721,908 156,1018 146,811 517,378 322,425 390,395 246,476 96,23 88,148 45,336 604,542 274,428 200,520 207,905 78,18 638,205 466,560 546,151 87,98 202,95 62,121 806,9 679,53 176,86 114,931 767,968 777,1075 772,1064 494,739 472,871 749,1078 186,1053 206,942 809,970 773,1056 638,908 651,1079 766,929 688,873 754,1054 763,889 729,925 699,795 665,989 693,246 717,133 731,215 575,30 293,175 236,226 419,76 487,202 645,211 600,175 731,388 473,197 715,408 346,462 624,12 252,2 107,119 75,1028 56,895 32,573 44,272 188,975 264,890 199,336 290,116 251,212 88,174 707,693 462,601 474,887 755,1014 623,963 682,840 670,435 362,393 354,415 427,504 336,463 343,461 355,486 528,440 508,519 464,391 39,540 337,109 493,230 472,738 661,531 471,840 448,754 312,824 336,845 315,603 486,852 548,315 584,249 285,89 624,280 545,809 573,769 626,659 406,808 612,297 353,56 722,103 122,18 121,67 149,139 486,91 423,22 446,42 540,136 37,64 790,26 677,165 458,123 644,316 291,18 212,528 152,404 464,466 128,434 56,100 181,98 247,454 199,262 190,431 262,48 174,442 715,502 708,1001 744,988 23,1023 87,1012 25,1042 325,874 800,837 723,715 561,878 753,1041 703,727 630,919 434,894 754,565 270,1063 719,1079 773,758 530,728 702,739 434,951 658,772 704,624 269,380 146,921 606,718 413,1025 10,1057 232,1076 224,710 51,1061 19,36 58,20 5,540 417,418 291,403 670,384 439,138 408,105 25,0 744,112 754,408 673,763 753,419 748,113 602,173 628,294 664,156 390,105 47,295 262,704 279,946 522,994 364,1053 140,649 513,1037 527,999 603,574 461,885 431,874 554,703 630,531 486,528 566,708 474,475 475,582 660,978 369,961 107,696 555,957 267,893 253,603 277,849 295,770 375,659 458,861 415,677 299,691 94,744 604,644 528,868 556,775 686,823 330,880 329,805 224,892 312,733 381,630 635,860 282,856 456,1054 309,742 206,597 266,917 398,870 596,605 466,769 451,838 4,1071 6,879 744,480 798,1025 802,466 784,516 800,215 758,769 779,692 806,274 771,810 793,724 798,1060 692,944 118,879 573,526 8,1076 236,1075 95,966 77,1059 389,1063 216,653 256,702 9,93 28,58 21,26 630,109 744,369 514,894 665,700 366,1035 80,689 419,1000 486,369 435,1042 776,1057 433,1028 2,938 5,513 123,906 266,676 226,776 200,362 122,307 359,112 13,430 66,445 113,907 632,1072 42,1008 298,945 19,923 83,609 120,1069 202,981 79,827 176,364 181,126 658,165 804,739 509,100 464,79 536,85 412,71 648,137 564,137 599,656 797,641 724,670 705,93 790,3 320,34 3,40 39,128 116,68 202,227 27,128 130,220 135,106 786,53 776,396 250,388 503,488 731,826 711,398 725,242 765,136 703,32 703,122 761,972 510,990 777,824 802,255 806,138 784,1069 790,862 532,819 713,996 751,568 711,668 535,848 581,842 20,1065 354,990 712,513 741,480 543,889 767,103 734,55 734,1002 753,897 298,1068 74,503 115,704 3,214 60,1050 421,1055 733,1000 804,33 742,41 391,38 779,1 650,97 672,661 610,1064 765,12 452,37 571,338 743,579 714,499 21,349 26,1048 146,1052 21,1050 20,1034 26,971 104,1063 138,432 418,419 309,422 130,622 89,376 68,596 65,962 62,562 9,18 73,440 205,205 192,206 117,513 153,1062 1,159 68,919 59,927 326,977 322,1051 259,1078 657,1078 508,1068 490,368 278,693 11,1058 38,840 154,654 137,118 4,507 337,96 559,298 806,1078 523,1026 642,1015 437,1005 371,1026 450,737 664,255 614,42 794,43 680,56 613,47 575,118 372,66 639,289 491,233 749,465 537,56 56,215 37,188 237,737 593,800 545,855 791,818 751,831 717,443 446,154 735,175 556,72 676,75 603,60 146,21 93,504 226,1047 15,211 61,46 30,300 135,113 48,835 50,334 136,527 162,429 104,905 31,681 4,664 89,518 4,658 7,782 238,7 230,675 537,1079 406,1004 157,848 132,916 73,901 3,133 16,126 1,984 190,971 320,1009 154,846 268,377 802,599 410,83 380,9 720,71 778,582 677,990 660,1053 616,441 407,661 399,628 412,798 486,836 716,909 569,157 445,259 763,1051 280,1065 773,1068 753,1066 517,1066 113,761 104,1019 302,996 230,815 141,1042 46,1078 46,1076 56,832 200,1041 785,55 481,589 493,731 445,864 421,806 473,796 430,787 567,1001 521,973 131,944 57,1065 150,98 119,297 172,170 189,10 491,88 672,333 426,197 580,255 532,891 403,789 508,615 566,964 670,801 167,1035 34,963 77,1075 337,981 667,1011 788,899 649,845 518,1027 793,1052 764,1068 761,1073 184,892 190,823 65,1012 347,955 648,967 169,1048 63,969 662,1072 238,906 15,1037 335,1038 97,958 723,796 683,315 735,52 724,4 808,331 803,239 486,962 119,1004 323,804 660,698 622,818 563,977 540,958 772,854 765,710 793,813 801,99 767,820 718,189 748,79 575,878 524,894 713,1031 611,1057 559,317 659,888 807,1072 633,1074 666,338 526,176 423,173 807,115 755,219 757,534 731,181 724,737 762,838 589,877 63,915 348,820 68,770 640,781 592,500 238,409 14,330 657,605 696,647 523,24 737,381 521,639 627,864 514,624 738,163 551,204 40,36 103,204 130,307 52,353 93,88 39,263 90,135 132,1 740,18 617,436 716,826 784,1030 704,601 489,117 560,108 504,38 61,129 54,277 101,26 302,966 261,749 800,547 135,793 197,849 145,530 324,397 212,527 184,130 257,356 801,1069 733,958 660,784 550,837 665,442 484,453 668,503 733,678 767,432 433,563 175,949 277,1031 349,642 589,710 662,807 495,550 265,411 122,254 40,463 191,80 203,819 159,751 381,548 202,719 642,628 647,585 807,1072 665,735 646,960 627,871 234,936 225,301 199,333 148,879 671,834 705,585 52,866 146,766 145,547 166,946 151,741 533,776 161,928 222,902 90,960 70,873 130,846 250,187 650,65 632,186 255,33 49,78 18,353 0,727 49,733 32,281 265,182 340,12 73,11 50,63 191,160 251,557 24,1051 0,389 15,587 416,373 301,432 402,398 10,613 11,676 72,1054 187,1043 525,909 346,937 425,1035 649,1004 608,989 745,947 580,1011 708,759 579,924 596,957 745,622 783,872 760,888 762,606 424,704 403,840 801,985 318,950 653,964 700,1052 487,1012 474,1041 50,467 388,78 520,107 87,248 125,582 339,4 151,575 114,1012 201,842 231,813 17,62 16,825 66,1031 44,317 256,283 147,449 292,58 194,549 225,799 249,888 172,1011 28,867 245,1046 169,201 181,345 256,11 102,21 96,155 189,25 47,229 347,110 56,20 462,161 639,578 561,561 646,838 639,484 645,833 310,550 22,19 24,158 47,150 44,43 224,122 7,975 23,719 145,1029 559,920 94,1027 95,466 698,425 222,382 607,439 567,478 806,16 576,56 788,197 798,972 806,393 710,285 548,529 436,942 619,870 736,828 495,104 461,937 664,933 561,916 402,875 472,756 744,346 790,711 772,158 778,117 778,719 803,1051 781,657 792,345 444,152 697,185 687,137 777,399 509,35 211,226 141,476 112,739 17,1009 0,757 3,835 215,4 109,323 11,137 67,88 127,32 502,53 665,308 596,185 427,146 663,434 379,436 504,421 33,486 30,23 425,74 625,256 144,795 144,640 171,606 291,721 761,682 676,34 429,94 608,133 608,814 488,328 413,856 444,986 527,769 484,437 569,396 486,539 369,958 752,1074 722,1063 712,868 504,193 620,392 517,157 500,279 538,284 570,217 640,147 682,194 657,928 524,634 641,578 703,880 793,962 707,995 704,3 500,281 391,38 298,149 2,13 378,29 23,1 308,217 30,46 148,102 222,181 342,147 176,159 100,3 227,983 183,886 450,860 444,628 666,457 63,479 499,453 572,441 679,740 547,367 467,643 380,673 667,582 506,426 481,700 495,445 311,621 408,528 360,427 438,414 230,453 606,459 105,476 146,112 805,28 805,594 798,494 742,65 627,570 591,556 750,50 738,238 464,112 738,175 757,10 701,218 798,18 768,15 753,193 692,591 707,749 12,1051 72,775 136,918 448,899 120,686 238,84 202,331 609,575 2,995 84,1056 117,710 618,729 666,681 762,988 603,815 569,813 563,908 538,236 469,212 665,475 358,381 362,407 742,68 753,535 454,919 612,867 725,941 91,1057 561,1022 360,536 566,938 625,841 718,1020 610,956 615,886 485,825 742,503 559,621 551,692 384,718 414,415 384,779 422,696 359,467 270,1007 482,1051 487,1061 108,857 238,835 381,978 200,725 212,815 263,947 94,828 98,1057 104,499 49,235 14,1062 120,909 482,920 595,830 594,735 728,774 728,607 761,193 265,770 384,980 240,734 495,815 543,1079 100,1060 574,1012 20,1069 239,996 8,1077 493,1071 375,523 282,963 210,890 556,950 423,899 271,751 5,16 504,0 499,263 688,374 581,496 436,544 519,495 774,51 454,263 671,306 621,421 427,23 566,297 468,1055 415,1074 662,794 683,908 655,807 708,555 706,179 690,986 681,1006 249,1017 179,987 7,186 0,817 146,501 54,170 644,31 578,28 583,313 408,139 595,308 424,139 605,108 570,45 207,9 781,107 768,370 774,420 325,12 55,497 66,322 23,902 39,544 20,746 573,475 582,535 788,926 676,1022 441,1041 253,707 102,167 105,250 163,8 644,287 423,88 510,210 578,28 779,19 725,810 714,955 430,379 619,734 478,517 270,629 590,682 558,676 515,870 531,784 645,532 388,964 696,1014 252,834 249,446 145,646 267,210 157,433 164,827 158,437 594,485 666,402 675,303 660,32 347,107 52,517 85,947 73,866 86,1038 39,122 82,250 170,797 590,659 481,771 484,891 56,1029 99,964 47,991 17,167 26,499 135,26 167,732 250,866 114,902 195,678 98,555 28,888 2,553 79,625 27,108 263,147 30,160 34,82 166,122 721,21 745,135 805,57 808,1020 791,1043 759,710 769,480 592,19 765,348 458,132 670,283 47,1076 358,1000 557,769 481,705 14,643 12,108 78,60 270,156 625,68 659,166 682,517 500,1038 354,1052 201,932 226,728 660,993 119,1042 57,968 205,1024 709,1059 635,1079 755,844 561,813 760,1079 543,932 682,968 643,1043 674,170 665,506 726,405 610,806 716,1011 683,927 370,945 298,693 192,604 184,602 216,723 217,407 167,401 34,20 88,59 76,135 52,106 133,47 17,28 48,84 97,180 174,100 106,924 7,520 9,452 11,97 173,211 69,127 86,454 166,778 544,694 407,871 258,754 289,802 797,1052 699,1034 556,1027 653,988 654,624 296,691 420,999 346,866 339,812 292,710 464,998 410,756 807,1057 606,824 616,745 660,690 647,700 542,810 705,577 637,327 146,493 565,451 232,420 127,260 235,405 175,153 217,591 212,923 25,975 409,1008 589,461 556,637 578,526 554,544 495,416 500,396 257,415 470,540 764,949 545,359 573,879 458,680 76,733 210,83 268,954 430,1005 473,1027 733,435 113,694 164,975 768,1079 765,833 754,918 790,774 721,623 749,384 795,929 570,359 315,436 159,571 293,710 758,494 662,94 194,17 249,917 340,947 181,472 68,50 593,21 808,808 757,922 800,502 790,239 164,926 129,1050 732,1005 794,835 759,932 793,217 789,132 331,97 104,315 150,175 797,1029 748,996 742,1018 779,839 797,430 803,424 182,639 116,327 294,43 150,129 339,36 667,217 607,380 548,659 555,418 323,501 672,43 277,3 205,302 331,9 155,86 593,41 601,543 734,1061 771,819 705,525 629,113 690,212 550,105 773,686 796,46 779,185 778,805 745,1023 638,1036 615,685 718,664 751,346 660,123 305,99 306,167 225,176 798,66 777,142 185,36 540,16 416,1 432,34 210,27 498,58 808,1060 804,830 722,328 752,277 785,3 746,2 544,12 720,1 755,175 722,659 472,616 368,966 561,657 392,706 449,948 531,775 457,762 416,629 360,689 490,565 472,573 657,500 350,928 150,630 168,765 25,966 3,437 89,1066 271,1051 679,1013 759,811 701,992 710,656 183,977 412,594 800,991 61,966 81,698 42,602 22,36 136,358 121,405 703,533 179,765 115,603 10,181 30,1027 61,780 245,443 413,449 405,448 231,345 609,464 208,349 234,887 178,734 3,30 692,1 776,166 682,160 510,57 503,622 516,633 412,627 434,621 469,669 395,1008 734,974 672,194 285,126 301,135 275,186 194,428 35,114 790,0 732,120 211,137 536,89 268,838 526,870 771,1073 81,1070 135,980 89,851 128,864 130,981 116,1069 27,960 59,679 55,620 42,1034 13,970 336,1041 757,609 717,832 636,698 780,1020 708,921 782,1068 584,1076 593,514 195,972 184,736 107,1030 749,942 224,1079 774,903 752,999 133,846 496,388 102,600 331,939 356,1074 126,913 348,1056 312,582 94,307 84,644 155,823 326,730 317,755 509,835 616,613 524,606 403,952 254,803 279,951 229,700 362,553 711,178 796,8 275,1 511,272 590,141 662,228 769,52 677,93 130,4 373,44 803,96 809,155 764,94 248,1012 539,1079 291,1075 527,1043 171,1066 755,1059 694,868 644,1031 562,765 561,708 656,557 375,688 577,659 660,2 722,673 275,439 515,394 551,891 622,849 198,411 540,374 315,620 349,1053 222,951 460,1073 581,1057 71,1057 95,1053 16,999 82,673 59,23 679,22 457,252 556,150 395,396 107,401 113,516 77,606 116,204 113,4 112,163 475,132 473,308 516,24 744,239 809,25 611,120 6,137 40,95 28,331 133,890 511,732 170,861 7,76 366,24 789,20 605,154 511,296 503,157 744,328 723,327 469,182 553,197 712,25 497,4 400,49 155,74 347,46 552,307 512,120 62,102 519,118 723,208 748,350 290,27 16,616 1,27 226,91 201,190 266,197 386,140 286,125 29,72 308,56 270,122 146,457 284,957 108,699 104,646 687,1049 98,984 120,865 180,857 287,913 91,29 278,131 377,32 400,219 678,196 732,442 752,755 718,22 755,8 588,64 662,53 118,64 205,491 68,29 564,206 764,6 568,93 481,285 452,145 245,57 467,98 785,1071 769,992 376,897 44,360 233,498 242,957 140,886 72,909 153,849 225,46 166,61 301,186 174,176 4,97 1,293 2,144 114,764 131,907 372,1050 147,311 211,291 360,484 372,603 647,795 296,359 701,692 175,1026 153,872 51,738 16,619 37,742 767,710 715,17 641,469 634,522 541,202 692,697 153,1017 186,954 141,1055 802,1071 463,1065 105,824 19,772 18,1004 366,963 106,1059 361,809 248,974 448,742 731,962 109,799 229,906 515,862 507,892 304,706 465,682 594,721 382,981 734,847 799,364 712,616 753,171 533,942 658,811 130,405 47,45 13,14 15,194 121,158 289,202 340,130 117,229 104,421 79,103 367,479 337,443 375,644 630,684 548,599 547,567 477,833 487,950 682,110 29,23 118,839 66,871 4,1011 78,586 32,447 551,942 803,1077 204,1056 124,697 182,407 171,30 66,304 84,243 114,504 56,216 80,196 110,331 374,118 701,168 679,65 636,150 364,127 54,381 31,880 242,734 65,535 56,752 0,11 2,511 55,924 459,1019 166,1021 142,889 16,313 313,156 156,392 53,609 85,925 113,1008 719,935 725,1079 558,1045 608,897 607,992 242,832 424,561 635,462 630,123 430,63 663,546 428,1078 622,1033 759,1001 322,1079 185,1078 796,1071 761,922 592,888 623,1072 310,1075 661,894 497,950 50,902 568,824 183,1015 430,952 774,229 742,1059 205,1043 460,1041 31,995 40,213 21,429 299,175 134,268 176,230 183,173 49,910 1,262 110,319 423,415 329,517 681,214 717,548 640,1034 95,956 78,945 1,323 28,917 33,961 144,485 250,1024 196,1073 198,871 77,1073 126,974 200,225 339,158 333,157 263,113 195,456 642,489 442,952 697,320 612,429 487,613 418,730 542,689 582,174 708,259 683,388 3,1068 205,960 608,514 438,466 343,384 736,488 784,1057 764,768 571,810 789,680 766,839 799,827 795,797 752,1030 795,1045 556,591 777,90 782,133 722,928 642,455 355,363 0,739 332,921 404,905 189,938 0,1042 2,292 2,684 715,110 680,111 510,287 529,217 400,133 549,216 766,801 558,226 647,458 767,1025 714,875 696,718 504,185 317,734 97,606 82,919 116,567 539,973 626,704 584,934 765,1011 802,644 780,404 623,888 610,922 789,693 497,515 588,488 416,665 332,681 429,720 545,527 272,356 143,924 67,1072 130,553 497,262 705,168 421,5 624,271 670,235 631,164 425,889 464,1010 513,531 796,971 602,49 801,54 807,92 768,822 808,908 805,602 794,813 748,196 469,290 714,199 313,601 629,274 49,4 341,60 718,520 582,329 308,939 68,242 424,401 373,452 619,34 440,180 414,518 64,797 59,777 486,507 580,368 95,453 148,625 228,573 203,780 256,772 181,704 183,972 340,790 650,793 809,67 557,46 145,114 271,738 540,778 309,570 573,965 569,850 500,403 467,879 120,809 278,896 49,768 599,1007 609,832 673,605 585,928 791,1020 580,1043 400,740 805,29 597,68 572,377 387,152 627,241 780,48 724,131 593,259 748,22 641,258 249,82 118,171 259,95 365,19 82,31 683,220 423,818 589,836 452,799 457,826 562,517 733,613 626,859 600,847 715,987 76,957 125,832 34,668 2,927 179,641 182,0 731,8 693,69 691,0 687,112 775,108 58,70 388,486 123,233 416,103 130,242 561,602 612,631 610,394 32,470 22,695 213,854 210,573 353,820 352,932 610,920 579,108 600,100 391,91 405,30 546,5 608,108 613,160 137,565 86,36 803,50 753,293 781,911 767,231 769,466 784,206 766,581 587,1055 112,942 498,880 418,973 334,858 154,819 158,15 542,44 356,39 5,689 88,295 32,1005 163,996 443,892 669,859 799,1015 656,419 780,944 194,1003 184,265 178,355 231,340 253,479 118,748 190,754 107,453 51,38 39,417 449,363 566,1028 777,999 628,1075 733,1076 523,960 793,506 786,1076 503,1074 758,1033 52,293 111,274 315,854 396,942 224,1013 217,213 205,106 207,847 40,87 89,138 86,321 15,220 163,430 381,606 406,730 107,294 27,8 97,135 175,37 604,166 590,37 97,218 1,0 38,252 158,129 632,17 615,380 4,572 68,38 131,0 216,127 41,68 241,486 371,493 106,82 12,31 84,500 76,439 68,44 541,54 433,3 137,72 189,716 44,7 328,139 602,291 318,114 190,366 600,435 460,856 622,493 610,638 420,509 329,296 649,999 794,1077 730,598 802,290 670,1005 637,205 594,204 677,392 727,33 708,529 803,126 788,266 594,663 406,721 703,6 753,77 755,207 739,240 652,645 566,934 442,211 463,182 559,915 807,799 671,1074 570,1078 764,6 208,9 545,0 134,55 159,8 116,182 120,746 130,1000 82,804 30,998 158,895 77,854 59,806 3,1011 64,984 102,74 22,87 302,68 681,418 777,14 806,56 780,417 784,225 778,87 704,287 808,286 490,68 785,915 806,778 792,21 252,9 211,936 714,1033 573,52 729,415 718,367 664,86 609,47 642,5 287,115 688,287 706,338 638,487 625,820 626,936 696,999 684,1076 444,1008 80,1079 204,1030 581,1040 560,909 663,836 691,1006 630,1002 645,495 581,362 43,429 639,575 277,662 805,1074 727,1048 129,799 89,499 276,706 265,680 249,979 51,1054 390,1040 683,963 584,52 521,24 568,31 122,5 776,6 514,84 668,79 809,378 750,585 232,878 362,865 496,834 534,1055 509,633 313,592 242,794 64,53 157,181 349,170 184,149 0,1065 16,366 6,60 595,94 769,24 458,245 388,32 129,368 175,430 7,972 65,282 44,291 70,560 47,1074 41,964 245,403 659,339 582,128 586,280 685,399 535,924 459,822 605,1058 212,777 638,814 753,1060 793,1062 680,1031 740,681 786,959 689,898 719,944 749,294 482,125 809,345 597,35 781,5 504,117 689,29 704,580 546,1077 637,1046 402,1038 161,1029 22,924 17,166 34,294 121,306 210,634 57,323 372,131 219,250 108,486 387,389 174,471 27,26 141,100 34,1062 94,1069 5,948 70,184 57,271 52,278 63,922 214,1004 769,1069 455,933 220,777 187,932 603,663 533,874 284,840 218,988 31,968 253,609 172,586 292,722 145,885 61,692 162,896 228,921 670,1051 421,984 16,1025 161,932 265,952 66,858 126,986 379,846 516,465 484,559 437,679 319,680 745,764 793,196 780,315 748,47 647,200 750,48 779,322 749,95 766,162 721,81 593,238 349,138 330,991 310,718 375,669 235,489 313,589 683,645 619,217 567,230 542,262 447,234 547,255 77,1074 339,997 228,861 345,827 260,678 347,962 191,905 401,747 385,793 189,1035 172,1004 248,80 451,842 742,392 705,746 80,832 336,972 70,1013 281,637 441,446 679,479 782,121 782,61 708,472 245,445 219,278 557,560 606,103 671,466 298,390 705,329 379,418 335,399 603,717 289,315 507,612 605,703 623,722 513,689 600,884 803,1023 783,310 470,553 477,205 771,481 799,227 803,7 730,275 675,945 660,672 705,1025 658,686 678,681 217,852 358,558 538,75 587,237 783,970 419,729 448,952 715,947 497,708 174,999 172,156 257,341 243,678 205,352 270,172 12,119 158,819 451,645 493,170 537,295 572,283 323,161 650,64 667,68 786,102 704,28 760,763 680,1034 437,847 596,825 562,830 681,555 150,964 180,942 99,1062 47,140 33,5 26,10 533,92 511,265 760,517 483,435 583,383 471,190 782,3 780,138 430,137 640,240 280,7 388,88 515,65 497,182 463,953 731,404 546,773 665,541 549,254 621,920 496,961 406,1013 180,252 450,510 627,961 222,477 271,165 266,303 206,225 208,172 2,1061 6,690 38,263 21,93 221,163 265,236 274,93 240,339 193,266" fill="none" stroke="black" stroke-width="1.25"/>
</svg>
  